<svg width="28" height="40" viewBox="0 0 28 40" fill="none" xmlns="http://www.w3.org/2000/svg">
<path d="M25.8421 6.84975C23.4145 2.66038 19.1027 0.100923 14.3077 0.00311066C14.103 -0.00110809 13.897 -0.00110809 13.6923 0.00311066C8.89742 0.100923 4.58555 2.66038 2.15789 6.84975C-0.323513 11.1319 -0.391403 16.2757 1.97625 20.6094L11.8952 38.7646C11.8997 38.7726 11.9041 38.7807 11.9088 38.7887C12.3452 39.5472 13.127 40 14.0002 40C14.8733 40 15.6551 39.5471 16.0914 38.7887C16.096 38.7807 16.1005 38.7726 16.1049 38.7646L26.0239 20.6094C28.3914 16.2757 28.3235 11.1319 25.8421 6.84975ZM14 18.125C10.8984 18.125 8.375 15.6016 8.375 12.5C8.375 9.39834 10.8984 6.87499 14 6.87499C17.1016 6.87499 19.625 9.39834 19.625 12.5C19.625 15.6016 17.1017 18.125 14 18.125Z" fill="#FB9039"/>
</svg>
